<?xml version="1.0" encoding="utf-8"?>
<!-- Generator: Adobe Illustrator 21.1.0, SVG Export Plug-In . SVG Version: 6.00 Build 0)  -->
<svg version="1.1" id="Layer_1" xmlns="http://www.w3.org/2000/svg" xmlns:xlink="http://www.w3.org/1999/xlink" x="0px" y="0px"
	 viewBox="0 0 67 67" style="enable-background:new 0 0 67 67;" xml:space="preserve">
<style type="text/css">
	.st0{fill:#BC2B82;}
</style>
<title>insta</title>
<path class="st0" d="M42.3,26.6L42.3,26.6c0.5,0,1,0,1.5,0c0.7,0,1.2-0.5,1.2-1.2c0,0,0,0,0,0v-2.9c0-0.7-0.5-1.2-1.2-1.2
	c0,0,0,0,0,0h-2.9c-0.7,0-1.2,0.5-1.2,1.2c0,0,0,0,0,0c0,1,0,1.9,0,2.9c0,0.1,0,0.3,0.1,0.4c0.2,0.5,0.7,0.8,1.2,0.8L42.3,26.6z
	 M33,27.8c-3.4,0-6.2,2.8-6.2,6.2s2.8,6.2,6.2,6.2c3.4,0,6.1-2.7,6.2-6c0.1-3.4-2.6-6.2-6-6.3C33.1,27.8,33,27.8,33,27.8z M21,31.1
	L21,31.1c0,4.6,0,9.1,0,13.6c0,0.7,0.5,1.2,1.2,1.3c0,0,0,0,0.1,0h21.5c0.7,0,1.2-0.5,1.3-1.2c0,0,0,0,0-0.1c0-4.5,0-9,0-13.5v-0.1
	h-3c0.4,1.3,0.5,2.7,0.4,4c-0.2,1.3-0.6,2.6-1.3,3.8c-2.6,4.4-8.3,5.8-12.7,3.3c-1.6-0.9-2.8-2.1-3.7-3.7c-1.2-2.3-1.5-5-0.7-7.4
	L21,31.1z M45.2,49.3l0.5-0.1c1.3-0.3,2.3-1.3,2.5-2.6c0-0.1,0-0.3,0.1-0.4V21.8c0-0.1,0-0.3-0.1-0.4c-0.3-1.4-1.4-2.4-2.8-2.6h-0.2
	H20.8l-0.4,0.1c-1.3,0.3-2.4,1.4-2.5,2.8v0.2v24.5c0,0.2,0,0.3,0.1,0.5c0.3,1.3,1.4,2.3,2.8,2.5h0.2L45.2,49.3z M33,64
	C16.4,64,3,50.6,3,34S16.4,4,33,4s30,13.4,30,30S49.6,64,33,64z"/>
</svg>
