<?xml version="1.0" encoding="utf-8"?>
<!-- Generator: Adobe Illustrator 21.1.0, SVG Export Plug-In . SVG Version: 6.00 Build 0)  -->
<svg version="1.1" id="Layer_1" xmlns="http://www.w3.org/2000/svg" xmlns:xlink="http://www.w3.org/1999/xlink" x="0px" y="0px"
	 viewBox="0 0 317.6 317.6" style="enable-background:new 0 0 317.6 317.6;" xml:space="preserve">
<style type="text/css">
	.st0{fill:#BC2B82;}
</style>
<title>yt</title>
<polygon class="st0" points="140.5,181.7 188.2,156.9 140.5,132 "/>
<path class="st0" d="M158.8,7.2C75,7.2,7.2,75,7.2,158.8S75,310.4,158.8,310.4s151.6-67.9,151.6-151.6
	C310.4,75.1,242.6,7.2,158.8,7.2C158.8,7.2,158.8,7.2,158.8,7.2z M248.9,161.6c-0.1,9.4-0.7,18.7-1.7,28c0,0-1.7,11.9-6.8,17.2
	c-6.5,6.8-13.9,6.9-17.3,7.3c-24.2,1.7-60.6,1.8-60.6,1.8s-44.9-0.4-58.8-1.7c-3.8-0.7-12.4-0.4-19-7.4c-5.2-5.3-6.8-17.2-6.8-17.2
	c-1.1-9.3-1.7-18.7-1.7-28v-13.2c0.1-9.4,0.7-18.7,1.7-28c0,0,1.7-11.9,6.8-17.2c6.5-6.8,13.9-6.9,17.3-7.3
	c24.2-1.7,60.5-1.7,60.5-1.7h0.1c0,0,36.3,0,60.5,1.7c3.3,0.4,10.8,0.4,17.3,7.3c5.2,5.3,6.8,17.2,6.8,17.2c1.1,9.3,1.7,18.7,1.7,28
	V161.6z"/>
</svg>
