<svg id="Layer_1" data-name="Layer 1" xmlns="http://www.w3.org/2000/svg" viewBox="0 0 317.56 317.56"><defs><style>.cls-1{fill:#fff;}</style></defs><title>yt_hover</title><polygon class="cls-1" points="140.46 181.66 188.24 156.88 140.46 131.97 140.46 181.66"/><path class="cls-1" d="M158.78,0A158.78,158.78,0,1,0,317.56,158.78,158.73,158.73,0,0,0,158.78,0Zm88.39,165.46a266.88,266.88,0,0,1-1.77,28.65s-1.7,12.19-7,17.57c-6.69,7-14.22,7.08-17.7,7.47-24.78,1.77-61.94,1.84-61.94,1.84s-45.95-.39-60.11-1.77c-3.93-.72-12.72-.46-19.47-7.54-5.31-5.38-7-17.57-7-17.57a268.5,268.5,0,0,1-1.77-28.64V152a266.88,266.88,0,0,1,1.77-28.64s1.7-12.19,7-17.57c6.69-7,14.22-7.08,17.7-7.47,24.78-1.77,61.88-1.77,61.88-1.77h.07s37.1,0,61.88,1.77c3.41.39,11,.39,17.7,7.47,5.31,5.38,7,17.57,7,17.57A266.9,266.9,0,0,1,247.17,152Z"/></svg>